<?xml version="1.0" encoding="UTF-8"?>
<!--Generator: Apple Native CoreSVG 232.5-->
<!DOCTYPE svg
PUBLIC "-//W3C//DTD SVG 1.1//EN"
       "http://www.w3.org/Graphics/SVG/1.1/DTD/svg11.dtd">
<svg version="1.1" xmlns="http://www.w3.org/2000/svg" xmlns:xlink="http://www.w3.org/1999/xlink" width="418.945" height="419.199">
 <g>
  <rect height="419.199" opacity="0" width="418.945" x="0" y="0"/>
  <path d="M0 209.473C0 221.914 10.4102 232.07 22.5977 232.07L186.875 232.07L186.875 396.348C186.875 408.535 197.031 418.945 209.473 418.945C221.914 418.945 232.324 408.535 232.324 396.348L232.324 232.07L396.348 232.07C408.535 232.07 418.945 221.914 418.945 209.473C418.945 197.031 408.535 186.621 396.348 186.621L232.324 186.621L232.324 22.5977C232.324 10.4102 221.914 0 209.473 0C197.031 0 186.875 10.4102 186.875 22.5977L186.875 186.621L22.5977 186.621C10.4102 186.621 0 197.031 0 209.473Z" fill="#ffffff" fill-opacity="0.85"/>
 </g>
</svg>
